<?xml version="1.0" encoding="utf-8"?>
<!-- Generator: Adobe Illustrator 24.3.0, SVG Export Plug-In . SVG Version: 6.00 Build 0)  -->
<svg version="1.1" id="Calque_2_1_" xmlns="http://www.w3.org/2000/svg" xmlns:xlink="http://www.w3.org/1999/xlink" x="0px"
	 y="0px" viewBox="0 0 453 148.9" style="enable-background:new 0 0 453 148.9;" xml:space="preserve">
<style type="text/css">
	.st0{fill:none;}
</style>
<g>
	<path class="st0" d="M411.2,43.2c-0.1,0.1-0.2,0.2-0.4,0.4c-0.2,0.2-0.5,0.5-0.7,0.8"/>
</g>
<path d="M186.4,100.4c1.2-7.1-1.9-17.3-18.7-17.3c-12.1,0-18.1,6.1-19.7,13.8c-1.8,8.6,1.9,13.5,11.4,20.2c6.6,4.7,8,7.8,7.1,11.8
	c-0.7,3.3-2.7,5.3-6.3,5.3c-4.9,0-5.8-4.2-5.3-8.5h-14.3c-1.5,8.8,2.3,18.3,19.4,18.3c12.8,0,19.4-5.8,21.3-13.8
	c2.4-9.4-0.5-15.2-11.7-22.9c-6.9-4.8-8-6.9-7.4-9.9s2.3-4.6,5.3-4.6c4.9,0,5.2,4.4,4.8,7.5L186.4,100.4z"/>
<path d="M222.3,84.1c-4.5,8-9.3,16.6-14.2,25.6c0-4.6-1.1-18.8-1.8-25.6H191l6.5,36.1c0.2,0.9,0.1,1.8-0.1,2.7l-4.9,20h15.1
	l4.9-19.6c0.2-0.8,0.5-1.6,1-2.3l25-36.9L222.3,84.1z"/>
<path d="M295.6,101.6c1.5-9.1-1.6-18.5-17.3-18.5c-15.1,0-22.9,10-27.5,28.9c-5.5,22.2-0.2,32.1,16.3,32.1
	c16.2,0,20.9-10.4,23.3-18.6h-15.1c-1.1,3.9-3.2,8.3-7.4,8.3c-5.7,0-5.4-6.8-1.9-21.1c3.2-13.3,6.3-19.3,11.1-19.3s4.4,4,3.7,8.3
	L295.6,101.6z"/>
<path d="M315,88.3c-6.2,13.4-25.3,54.7-25.3,54.7H305l5.6-13.3H323l-0.6,13.3h15l0.8-50.8L388,62.9l-66.8,20
	C318.5,83.7,316.2,85.7,315,88.3z M323.3,119.1h-8.2c3.9-9.8,7.6-19.6,9.4-24.9h0.4C324.5,99.6,323.8,110,323.3,119.1L323.3,119.1z"
	/>
<path d="M376.8,84.1h-20l-14.3,58.8h15l5.9-24.4h3.9c5.8,0,7,2.2,5.4,9c-1.6,7.1-2.9,13-2.8,15.5h14.6c0.2-2.8,1.3-7.7,2.9-14.7
	c1.9-8.1-0.2-12.1-4.6-14.1c4.6-1.2,9.8-4,11.8-11.7C397.2,92.1,392.2,84.1,376.8,84.1z M379.4,102.1c-1.3,5.4-4.5,6.5-9.8,6.5h-3.9
	l3.5-14.7h3.9C378.8,94,380.6,97,379.4,102.1L379.4,102.1z"/>
<path d="M433,85.6C433,85.6,432.9,85.6,433,85.6C433,85.6,433,85.7,433,85.6c6.5,3.6,7.7,10,6.8,14.9l-14-0.2
	c0.3-2.4,0.2-5.5-2.1-6.8c-0.2-0.1-0.4-0.2-0.6-0.3c-0.6-0.2-1.3-0.4-2.1-0.4c-1.9,0-3.3,0.7-4.2,1.9c-0.5,0.7-0.9,1.6-1.1,2.7
	c-0.4,2.1,0,3.8,2.7,6.2c1.1,1,2.7,2.2,4.7,3.6c11.1,7.7,14,13.4,11.7,22.9c-2,7.9-8.5,13.8-21.3,13.8c-17.1,0-20.9-9.5-19.4-18.3
	h14.4c-0.5,4.2,0.4,8.5,5.3,8.5c3.6,0,5.6-2,6.3-5.3c0.8-4.1-0.5-7.1-7.2-11.8c-3.5-2.4-6.2-4.7-8.1-6.9c-0.9-1-1.6-2-2.1-3
	c-0.1-0.2-0.2-0.4-0.3-0.6c-0.4-0.8-0.7-1.5-0.9-2.3c0-1.8,0.1-3.6,0.5-5.3c0.1-0.4,0.2-0.9,0.3-1.4l0.5-1.6l6.3-2.7
	c0.4-2.2,1-4.3,1.8-6.3c0.2-0.5,0.4-0.9,0.6-1.4c0.2-0.4,0.4-0.9,0.6-1.2c0.5-0.9,1-1.8,1.6-2.6c3-4.1,8.5-6.4,14-8.6
	c2.2-0.9,6.3-2.6,7.1-3.4c1-1,1.2-1.2-0.1-3.1c-1.3-1.8-2.9-3.4-4.5-4.8c-1.5,0.1-3.6,0.3-5.9,0.5c-9.6,0.9-17.2,1.5-21.1,0.6
	c-6.1-1.2-6.9-3.1-7.9-9.2v-0.1l-0.8-5.9c1.8-0.5-18.6-11.7-30.9-11.4c-1.5,0-2.9,0.2-4.3,0.6l-86.7,20.4l61.2-25
	c-14.1-4.8-30-10.2-39.5-11.8c-18-3-45-2.1-59.8,0.5c-6.5,1.1-27.2,9.6-56.6,23.3c-10.9,5.1-23,7.8-35,7.8
	c-32.5,0.2-42.7,0.8-45.5,1.2c-20.6,3.1-55.8,18.4-59.2,21c-1.6,1.4-2.8,3.3-3.3,5.4l-11.2,45.9c-0.1,0.4-0.2,0.9-0.2,1.3
	c0,3,2.4,5.4,5.4,5.4h17.3l0-0.1L58,84.1h35.7L91,94.8H70.2L67.3,107h20l-2.7,10.7H64.7l-3.5,14.5v0.1h23.6l-4.2,10.6H59.4l0,0.1H11
	c-0.4,0-0.9,0-1.3-0.1c-2.9-0.7-4.7-3.7-4-6.6L19,82c0.1-0.5,2.3-12.4,10.5-18.4c4.9-3.6,42.3-20.3,65.7-23.9
	c4.8-0.7,20.3-1.2,47.4-1.3c10.1,0,20.2-2.3,29.3-6.6c31.8-14.8,52-23,60-24.3c16-2.7,45.1-3.7,64.4-0.5c10.4,1.7,26.1,7,41.2,12.1
	l3.7,1.2c2.4,0.8,4.8,1.6,7,2.4c0.6,0.2,1.2,0.3,1.8,0.4l0.5,0.1c0.9,0.1,1.9,0.1,2.8,0c3.2-0.4,6.6-0.7,9.9-0.7
	c9.9,0,22.5,3.6,32.7,6.6l0.4,0.1c5.1,1.5,10.4,3,12.7,3.2c3.8,0.3,7.4,0.9,11,1.7c3.3,0.7,5.8,3.4,6.5,6.5l0.1,0.3
	c0.1,0.3,0.1,0.7,0.1,1c0,0-7.9,1.6-12.4,2.8c-1.7,0.5-3.2,1.4-4.4,2.7c-1.1,1.4-1.7,3.2-1.7,5.2l29.4-2c2,1.7,5.6,4.9,8,8.4
	c4.9,7.2,4.4,14.6-1.4,20.4C441.5,82.1,437.4,83.8,433,85.6z"/>
<path d="M111.5,88.3L86.2,143h15.4l5.6-13.3h12.4l-0.6,13.2h15l0.8-50.1l68.7-37.5l-85.6,27.6C115.1,83.7,112.8,85.7,111.5,88.3z
	 M119.9,119.1h-8.2c3.9-9.8,7.6-19.6,9.4-24.9h0.4C121.1,99.6,120.4,110,119.9,119.1z"/>
<path class="st0" d="M89.2,141.5"/>
<path class="st0" d="M410,44.5c0-0.1,0.1-0.1,0.1-0.2"/>
</svg>
